<?xml version="1.0"?>
<svg xmlns="http://www.w3.org/2000/svg" xmlns:xlink="http://www.w3.org/1999/xlink" xmlns:svgjs="http://svgjs.com/svgjs" version="1.1" width="512" height="512" x="0" y="0" viewBox="0 0 64 64" style="enable-background:new 0 0 512 512" xml:space="preserve" class=""><g><g xmlns="http://www.w3.org/2000/svg"><circle cx="32" cy="24" r="1" fill="#ffffff" data-original="#000000" style=""/><circle cx="26" cy="24" r="1" fill="#ffffff" data-original="#000000" style=""/><path d="m29 31c2.206 0 4-1.794 4-4h-2c0 1.103-.897 2-2 2s-2-.897-2-2h-2c0 2.206 1.794 4 4 4z" fill="#ffffff" data-original="#000000" style=""/><path d="m46.185 47.412c1.762-1.176 2.815-3.142 2.815-5.261v-13.151c0-2.206-1.794-4-4-4v-1c0-2.471-1.806-4.515-4.164-4.915.105-.565.164-1.137.164-1.716 0-5.166-4.203-9.369-9.369-9.369h-.631c-2.021 0-3.864.759-5.274 2h-1.927c-1.871 0-3.568.76-4.799 1.988v-7.988c0-1.654-1.346-3-3-3h-12c-1.654 0-3 1.346-3 3v8c0 1.654 1.346 3 3 3h3.586l3.293 3.293c.449.449 1.071.707 1.707.707 1.331 0 2.414-1.083 2.414-2.414v-1.586h1c.487 0 .941-.128 1.348-.335-.223.672-.348 1.388-.348 2.134 0 1.447.406 2.835 1.137 4.066-.7.86-1.137 1.942-1.137 3.135 0 2.543 1.916 4.626 4.376 4.937.595 2.22 1.872 3.969 3.624 5.005v1.238l-2.766.553c-4.191.839-7.234 4.55-7.234 8.826v7.441h2v11h22v-15.716c1.089.779 2.381 1.186 3.685 1.186 1.214 0 2.435-.348 3.5-1.058zm.815-18.412v4h-3.026c.635-.838 1.026-1.87 1.026-3v-3c1.103 0 2 .897 2 2zm-14.555 8.202.955.318-1.018 6.107-2.167-2.709zm.555-1.923v-1.337c2.468-1.46 4-4.328 4-7.942v-3.236c0 1.144.636 2.172 1.658 2.684l.342.17v2.764l-.342.171c-1.022.511-1.658 1.54-1.658 2.683v.764c0 1.654 1.346 3 3 3 .342 0 .677-.035 1-.101v4.687l-1.291-1.291c-.765-.765-1.711-1.35-2.736-1.691zm10-11.279v6c0 1.654-1.346 3-3 3-.552 0-1-.448-1-1v-.764c0-.382.212-.725.553-.895l1.447-.723v-5.236l-1.447-.724c-.341-.17-.553-.512-.553-.894v-.764c0-.552.448-1 1-1 1.654 0 3 1.346 3 3zm-19.201-12h.284c-.685 1.178-1.083 2.542-1.083 4h2c0-3.309 2.691-6 6-6h.631c4.063 0 7.369 3.306 7.369 7.369 0 .657-.109 1.3-.281 1.929-1.013.483-1.719 1.508-1.719 2.702v-3h-4.622c-2.711 0-5.424-.641-7.931-1.895l-.645-.322-.51.51c-.506.507-.933 1.086-1.281 1.707h-.011c-.834 0-1.609.225-2.301.588-.453-.858-.699-1.807-.699-2.789 0-2.647 2.152-4.799 4.799-4.799zm-6.799 0c0 .552-.448 1-1 1h-3v3.586c0 .337-.468.532-.707.293l-3.879-3.879h-4.414c-.552 0-1-.448-1-1v-8c0-.552.448-1 1-1h12c.552 0 1 .448 1 1zm2 12c0-1.375.935-2.524 2.198-2.877-.126.558-.198 1.129-.198 1.705v3.172c0 .281.014.554.032.826-1.178-.405-2.032-1.512-2.032-2.826zm4 2v-3.172c0-1.302.448-2.58 1.246-3.601 2.541 1.162 5.338 1.773 8.132 1.773h2.622v5c0 4.252-2.355 7-6 7s-6-2.748-6-7zm6 9c.702 0 1.367-.091 2-.249v.972l-2 3.334-2-3.334v-.972c.633.158 1.298.249 2 .249zm-3.495 2.118 2.28 3.799-2.167 2.709-1.054-6.32zm-6.505 14.882h2v9h-2zm17.707-9.707-1.414 1.414 1.707 1.707v15.586h-14v-15h-2v4h-4v-5.441c0-3.317 2.355-6.195 5.603-6.857l1.779 10.672 4.618-5.773 4.618 5.773 1.703-10.213 1.019.34c.732.245 1.409.663 1.955 1.209l2.291 2.29h2.414v-7h4v7.151c0 1.448-.72 2.793-1.925 3.597-1.709 1.139-4.001.911-5.453-.54z" fill="#ffffff" data-original="#000000" style=""/><path d="m13 7h2v2h-2z" fill="#ffffff" data-original="#000000" style=""/><path d="m9 7h2v2h-2z" fill="#ffffff" data-original="#000000" style=""/><path d="m5 7h2v2h-2z" fill="#ffffff" data-original="#000000" style=""/><path d="m57 55h2v2h-2z" fill="#ffffff" data-original="#000000" style=""/><path d="m49 55h2v2h-2z" fill="#ffffff" data-original="#000000" style=""/><path d="m53 55h2v2h-2z" fill="#ffffff" data-original="#000000" style=""/><path d="m60 49h-3.586l-3.293-3.293c-.449-.449-1.071-.707-1.707-.707-1.331 0-2.414 1.083-2.414 2.414v1.586h-1c-1.654 0-3 1.346-3 3v8c0 1.654 1.346 3 3 3h12c1.654 0 3-1.346 3-3v-8c0-1.654-1.346-3-3-3zm1 11c0 .552-.448 1-1 1h-12c-.552 0-1-.448-1-1v-8c0-.552.448-1 1-1h3v-3.586c0-.338.47-.531.707-.293l3.879 3.879h4.414c.552 0 1 .448 1 1z" fill="#ffffff" data-original="#000000" style=""/></g><script/></g></svg>
