<?xml version="1.0"?>
<svg xmlns="http://www.w3.org/2000/svg" xmlns:xlink="http://www.w3.org/1999/xlink" xmlns:svgjs="http://svgjs.com/svgjs" version="1.1" width="512" height="512" x="0" y="0" viewBox="0 0 52 60" style="enable-background:new 0 0 512 512" xml:space="preserve" class=""><g><g xmlns="http://www.w3.org/2000/svg" id="Page-1" fill="none" fill-rule="evenodd"><g id="021---Designer" fill="rgb(0,0,0)" fill-rule="nonzero" transform="translate(0 -1)"><path id="Shape" d="m0 57c0 2.209139 1.790861 4 4 4h44c2.209139 0 4-1.790861 4-4v-3c-.0123974-.2061813-.0763516-.4059524-.186-.581l-4.814-6.74v-20.679c0-1.6568542-1.3431458-3-3-3h-1.888c.141-.395.27-.788.395-1.181 2.5267864-1.4336156 4.3772277-3.8160453 5.141-6.619 1.469-5.677-1.977-11.469-2.125-11.713-.2229667-.36768255-.6560231-.55166002-1.0754554-.456891-.4194323.09476903-.7313201.44706363-.7745446.874891-.2 1.992-1.335 3.746-6.372 6.334-1.4833299.6777529-2.6350611 1.9191608-3.1999013 3.4490537-.5648402 1.5298928-.4961296 3.2218908.1909013 4.7009463-.756 1.332-1.462 2.656-2.082 3.938-.433.891-.826 1.781-1.2 2.67l.01-11.997c-.0203939-.1351441-.0497926-.2687749-.088-.4l-2.696-9.9c-.2735071-1.00521038-1.1862447-1.70278469-2.228-1.70278469s-1.9544929.69757431-2.228 1.70278469l-2.739 10.036c-.0179972.0877513-.0300248.1766217-.036.266v8.889l-4.867-11.747c-.4372328-1.00405279-1.5943342-1.47753337-2.61-1.068l-8.319 3.439c-1.02075408.4245739-1.50522762 1.5952732-1.083 2.617l3.286 7.927c-1.4021376.2802548-2.41161312 1.5111285-2.412 2.941v20.679l-4.814 6.74c-.10953156.1751018-.17347604.3748424-.186.581zm50 0c0 1.1045695-.8954305 2-2 2h-44c-1.1045695 0-2-.8954305-2-2v-2h14.586l1.707 1.707c.1874927.1875494.4418052.2929434.707.293h14c.2651948-.0000566.5195073-.1054506.707-.293l1.707-1.707h14.586zm-24-2h-6.586l-1.27-1.27.577-1.73h14.558l.577 1.73-1.27 1.27zm9.829-35.285 1.572.707c1.008.454 2.024.912 3.019 1.356-.209.617-.437 1.239-.682 1.86-.1.269-.219.541-.331.812-1.6120869-.4718791-3.1620594-1.1345704-4.617-1.974-.112-.06-.22-.115-.33-.175.429-.852.88-1.713 1.369-2.586zm2.386-7.7c3.514-1.806 5.594-3.43 6.639-5.295 1.0948308 2.51196449 1.3932383 5.2991953.855 7.986-.6343539 2.2723937-2.1387124 4.2032327-4.187 5.374-1.106-.494-2.209-.989-3.3-1.48l-2.06-.927c-.5031404-1.0189939-.5684889-2.1992224-.1809215-3.2675343.3875675-1.0683119 1.1944566-1.9321057 2.2339215-2.3914657zm-4.624 12.085c.084.045.167.087.252.133 1.5076113.8611864 3.1051726 1.5543348 4.764 2.067-1.4038117 3.0039927-3.0074062 5.9105078-4.8 8.7h-2.807v-4.027c.6830902-2.3550695 1.5494005-4.6530822 2.591-6.873zm-6.591 10.9v-10c0-.5522847-.4477153-1-1-1s-1 .4477153-1 1v10h-2v-19c.5871601.4521949 1.2721534.7604419 2 .9v3.1c0 .5522847.4477153 1 1 1s1-.4477153 1-1v-3.1c.732521-.1397687 1.4218082-.4501535 2.012-.906l-.012 14.833c0 .011-.005.024-.005.035v.022l.005 4.116zm1.951-22.063c-.4918246 1.2063997-1.6441454 2.0133372-2.946 2.063-1.3019684-.0503921-2.4539351-.8581378-2.945-2.065l.931-3.41c1.2690536.6332616 2.7619464.6332616 4.031 0zm-2.645-9.709 1.185 4.35c-.4563395.25207627-.9642947.39642448-1.485.422-.520467-.02589372-1.0280994-.17058949-1.484-.423l1.188-4.349c.0487751-.12181619.1667819-.2016811.298-.2016811s.2492249.07986491.298.2016811zm-12.006 7.692.765 1.847-3.7 1.532c-.3403673.1295403-.5833996.4338771-.6344336.7944684-.0510339.3605913.0980004.7204167.3890528.9393209.2910525.2189042.6780988.2622718 1.0103808.1132107l3.7-1.532.766 1.848-1.852.767c-.4411524.1825668-.6917156.6515225-.5982697 1.1197253.0934459.4682029.5048333.8050437.9822697.8042747.131043-.0004611.2607595-.0262685.382-.076l1.851-.767.765 1.848-3.7 1.532c-.4411524.1825668-.6917156.6515225-.5982697 1.1197253.0934459.4682029.5048333.8050437.9822697.8042747.131043-.0004611.2607595-.0262685.382-.076l3.7-1.532 1.159 2.8.949 2.16v8.034h-6.472l-8.556-20.636zm-7.3 15.08c0-.5522847.44771525-1 1-1h.217l4.146 10h-.363c-.5522847 0-1 .4477153-1 1s.4477153 1 1 1h28c.5522847 0 1-.4477153 1-1s-.4477153-1-1-1h-3.835c2.0031537-3.1823558 3.7352518-6.5274662 5.178-10h2.657c.5522847 0 1 .4477153 1 1v20h-38zm-.485 22h38.97l3.572 5h-13.336l-.772-2.316c-.1360719-.4085428-.5183926-.6841037-.949-.684h-16c-.4306074-.0001037-.8129281.2754572-.949.684l-.772 2.316h-13.336z" fill="#ffffff" data-original="#000000" style="" class=""/><path id="Shape" d="m40.967 18.243c.1882954-.0002229.3727021-.0536038.532-.154 1.7631671-1.1422459 2.9664306-2.9716273 3.317-5.043.0552285-.5495233-.3454767-1.0397715-.895-1.095s-1.0397715.3454767-1.095.895c-.2925639 1.4571448-1.1570337 2.7361999-2.4 3.551-.3762748.2381284-.5497604.6963657-.4255317 1.1239813s.5162368.7215686.9615317.7210187z" fill="#ffffff" data-original="#000000" style="" class=""/></g></g><script/></g></svg>
