<svg id="Flat" height="512" viewBox="0 0 512 512" width="512" xmlns="http://www.w3.org/2000/svg"><rect fill="#b5b8b9" height="256" rx="16" width="464" x="24" y="200"/><path d="m376 180a8 8 0 0 1 -8-8v-36a24.027 24.027 0 0 0 -24-24h-56a40.045 40.045 0 0 1 -40-40v-24a8 8 0 0 1 16 0v24a24.027 24.027 0 0 0 24 24h56a40.045 40.045 0 0 1 40 40v36a8 8 0 0 1 -8 8z" fill="#99a2a7"/><path d="m360 160h32v40h-32z" fill="#757c80"/><path d="m56 232h32v32h-32z" fill="#99a2a7"/><path d="m88 272h-32a8 8 0 0 1 -8-8v-32a8 8 0 0 1 8-8h32a8 8 0 0 1 8 8v32a8 8 0 0 1 -8 8zm-24-16h16v-16h-16z" fill="#757c80"/><path d="m120 232h192v32h-192z" fill="#99a2a7"/><path d="m312 272h-192a8 8 0 0 1 -8-8v-32a8 8 0 0 1 8-8h192a8 8 0 0 1 8 8v32a8 8 0 0 1 -8 8zm-184-16h176v-16h-176z" fill="#757c80"/><path d="m152 272a8 8 0 0 1 -8-8v-32a8 8 0 0 1 16 0v32a8 8 0 0 1 -8 8z" fill="#757c80"/><path d="m184 272a8 8 0 0 1 -8-8v-32a8 8 0 0 1 16 0v32a8 8 0 0 1 -8 8z" fill="#757c80"/><path d="m216 272a8 8 0 0 1 -8-8v-32a8 8 0 0 1 16 0v32a8 8 0 0 1 -8 8z" fill="#757c80"/><path d="m248 272a8 8 0 0 1 -8-8v-32a8 8 0 0 1 16 0v32a8 8 0 0 1 -8 8z" fill="#757c80"/><path d="m280 272a8 8 0 0 1 -8-8v-32a8 8 0 0 1 16 0v32a8 8 0 0 1 -8 8z" fill="#757c80"/><path d="m344 232h96v32h-96z" fill="#99a2a7"/><path d="m440 272h-96a8 8 0 0 1 -8-8v-32a8 8 0 0 1 8-8h96a8 8 0 0 1 8 8v32a8 8 0 0 1 -8 8zm-88-16h80v-16h-80z" fill="#757c80"/><path d="m376 272a8 8 0 0 1 -8-8v-32a8 8 0 0 1 16 0v32a8 8 0 0 1 -8 8z" fill="#757c80"/><path d="m408 272a8 8 0 0 1 -8-8v-32a8 8 0 0 1 16 0v32a8 8 0 0 1 -8 8z" fill="#757c80"/><path d="m328 296v96h-40v32h-232v-128z" fill="#99a2a7"/><g fill="#757c80"><path d="m288 432h-232a8 8 0 0 1 -8-8v-128a8 8 0 0 1 8-8h272a8 8 0 0 1 8 8v96a8 8 0 0 1 -8 8h-32v24a8 8 0 0 1 -8 8zm-224-16h216v-24a8 8 0 0 1 8-8h32v-80h-256z"/><path d="m328 336h-272a8 8 0 0 1 0-16h272a8 8 0 0 1 0 16z"/><path d="m328 368h-272a8 8 0 0 1 0-16h272a8 8 0 0 1 0 16z"/><path d="m88 336a8 8 0 0 1 -8-8v-32a8 8 0 0 1 16 0v32a8 8 0 0 1 -8 8z"/><path d="m104 368a8 8 0 0 1 -8-8v-32a8 8 0 0 1 16 0v32a8 8 0 0 1 -8 8z"/><path d="m120 400a8 8 0 0 1 -8-8v-32a8 8 0 0 1 16 0v32a8 8 0 0 1 -8 8z"/><path d="m152 400a8 8 0 0 1 -8-8v-32a8 8 0 0 1 16 0v32a8 8 0 0 1 -8 8z"/><path d="m184 400a8 8 0 0 1 -8-8v-32a8 8 0 0 1 16 0v32a8 8 0 0 1 -8 8z"/><path d="m216 400a8 8 0 0 1 -8-8v-32a8 8 0 0 1 16 0v32a8 8 0 0 1 -8 8z"/><path d="m248 400a8 8 0 0 1 -8-8v-32a8 8 0 0 1 16 0v32a8 8 0 0 1 -8 8z"/><path d="m280 400a8 8 0 0 1 -8-8v-32a8 8 0 0 1 16 0v32a8 8 0 0 1 -8 8z"/><path d="m136 368a8 8 0 0 1 -8-8v-32a8 8 0 0 1 16 0v32a8 8 0 0 1 -8 8z"/><path d="m168 368a8 8 0 0 1 -8-8v-32a8 8 0 0 1 16 0v32a8 8 0 0 1 -8 8z"/><path d="m200 368a8 8 0 0 1 -8-8v-32a8 8 0 0 1 16 0v32a8 8 0 0 1 -8 8z"/><path d="m232 368a8 8 0 0 1 -8-8v-32a8 8 0 0 1 16 0v32a8 8 0 0 1 -8 8z"/><path d="m264 368a8 8 0 0 1 -8-8v-32a8 8 0 0 1 16 0v32a8 8 0 0 1 -8 8z"/><path d="m296 368a8 8 0 0 1 -8-8v-32a8 8 0 0 1 16 0v32a8 8 0 0 1 -8 8z"/><path d="m120 336a8 8 0 0 1 -8-8v-32a8 8 0 0 1 16 0v32a8 8 0 0 1 -8 8z"/><path d="m152 336a8 8 0 0 1 -8-8v-32a8 8 0 0 1 16 0v32a8 8 0 0 1 -8 8z"/><path d="m184 336a8 8 0 0 1 -8-8v-32a8 8 0 0 1 16 0v32a8 8 0 0 1 -8 8z"/><path d="m216 336a8 8 0 0 1 -8-8v-32a8 8 0 0 1 16 0v32a8 8 0 0 1 -8 8z"/><path d="m248 336a8 8 0 0 1 -8-8v-32a8 8 0 0 1 16 0v32a8 8 0 0 1 -8 8z"/><path d="m280 336a8 8 0 0 1 -8-8v-32a8 8 0 0 1 16 0v32a8 8 0 0 1 -8 8z"/><path d="m88 432a8 8 0 0 1 -8-8v-32a8 8 0 0 1 16 0v32a8 8 0 0 1 -8 8z"/><path d="m120 432a8 8 0 0 1 -8-8v-32a8 8 0 0 1 16 0v32a8 8 0 0 1 -8 8z"/><path d="m224 432a8 8 0 0 1 -8-8v-32a8 8 0 0 1 16 0v32a8 8 0 0 1 -8 8z"/><path d="m256 432a8 8 0 0 1 -8-8v-32a8 8 0 0 1 16 0v32a8 8 0 0 1 -8 8z"/></g><path d="m360 296h96v32h-96z" fill="#99a2a7"/><path d="m456 336h-96a8 8 0 0 1 -8-8v-32a8 8 0 0 1 8-8h96a8 8 0 0 1 8 8v32a8 8 0 0 1 -8 8zm-88-16h80v-16h-80z" fill="#757c80"/><path d="m392 336a8 8 0 0 1 -8-8v-32a8 8 0 0 1 16 0v32a8 8 0 0 1 -8 8z" fill="#757c80"/><path d="m424 336a8 8 0 0 1 -8-8v-32a8 8 0 0 1 16 0v32a8 8 0 0 1 -8 8z" fill="#757c80"/><path d="m392 392h32v32h-32z" fill="#99a2a7"/><path d="m424 432h-32a8 8 0 0 1 -8-8v-32a8 8 0 0 1 8-8h32a8 8 0 0 1 8 8v32a8 8 0 0 1 -8 8zm-24-16h16v-16h-16z" fill="#757c80"/><path d="m392 360h32v64h-32z" fill="#99a2a7"/><path d="m424 432h-32a8 8 0 0 1 -8-8v-64a8 8 0 0 1 8-8h32a8 8 0 0 1 8 8v64a8 8 0 0 1 -8 8zm-24-16h16v-48h-16z" fill="#757c80"/><path d="m288 400h-232a8 8 0 0 1 0-16h232a8 8 0 0 1 0 16z" fill="#757c80"/><path d="m360 392h96v32h-96z" fill="#99a2a7"/><path d="m456 432h-96a8 8 0 0 1 -8-8v-32a8 8 0 0 1 8-8h96a8 8 0 0 1 8 8v32a8 8 0 0 1 -8 8zm-88-16h80v-16h-80z" fill="#757c80"/><path d="m392 392h32v32h-32z" fill="#99a2a7"/><path d="m424 432h-32a8 8 0 0 1 -8-8v-32a8 8 0 0 1 8-8h32a8 8 0 0 1 8 8v32a8 8 0 0 1 -8 8zm-24-16h16v-16h-16z" fill="#757c80"/></svg>