<svg id="Flat" height="512" viewBox="0 0 512 512" width="512" xmlns="http://www.w3.org/2000/svg"><path d="m232 432a40 40 0 0 1 -80 0 40.451 40.451 0 0 1 .95-8.72 55.058 55.058 0 0 1 -8.95.72 56 56 0 0 1 -32.48-101.62 56.019 56.019 0 0 1 41.96-103.6 39.579 39.579 0 0 1 -1.48-10.78 40 40 0 0 1 80 0" fill="#b75382"/><path d="m280 208a40 40 0 0 1 80 0 39.579 39.579 0 0 1 -1.48 10.78 56.016 56.016 0 0 1 41.96 103.6 56 56 0 0 1 -32.48 101.62 55.058 55.058 0 0 1 -8.95-.72 40.451 40.451 0 0 1 .95 8.72 40 40 0 0 1 -80 0z" fill="#b75382"/><path d="m320 136a64 64 0 1 0 -95.876 55.491 15.869 15.869 0 0 1 7.876 13.778v50.731h48v-50.731a15.87 15.87 0 0 1 7.878-13.779 63.952 63.952 0 0 0 32.122-55.49z" fill="#fcb442"/><g fill="#b01641"><path d="m192 256a48.135 48.135 0 0 1 -47.04-38.408 8 8 0 0 1 15.68-3.184 32.082 32.082 0 0 0 31.36 25.592 8 8 0 0 1 0 16z"/><path d="m164.424 329.351a64.076 64.076 0 0 0 16.367-11.637 8 8 0 0 0 -11.2-11.428 48.047 48.047 0 0 1 -54.159 9.1 8 8 0 1 0 -6.866 14.453 63.451 63.451 0 0 0 27.434 6.161 32.036 32.036 0 0 1 32 32 8 8 0 0 0 16 0 47.957 47.957 0 0 0 -19.576-38.649z"/><path d="m151.99 431.434a8 8 0 0 1 -1.123-15.92 48.17 48.17 0 0 0 27.419-13.921 8 8 0 0 1 11.428 11.2 64.244 64.244 0 0 1 -36.581 18.562 8.062 8.062 0 0 1 -1.143.079z"/><path d="m360.01 431.434a8.073 8.073 0 0 1 -1.143-.082 64.244 64.244 0 0 1 -36.581-18.562 8 8 0 0 1 11.428-11.2 48.17 48.17 0 0 0 27.419 13.921 8 8 0 0 1 -1.123 15.92z"/><path d="m320 280a8 8 0 0 1 -8-8 64.383 64.383 0 0 1 45.718-61.349 8 8 0 1 1 4.564 15.336 48.285 48.285 0 0 0 -34.282 46.013 8 8 0 0 1 -8 8z"/><path d="m404.576 315.476a63.62 63.62 0 0 0 -36.576-11.476 8 8 0 0 0 0 16 48.5 48.5 0 0 1 7.2.537 39.824 39.824 0 0 0 -15.2 31.463 8 8 0 0 0 16 0 24.172 24.172 0 0 1 19.26-23.511c.054.038.11.072.164.11a8 8 0 1 0 9.152-13.123z"/></g><path d="m255.2 56a8 8 0 0 1 -8-8v-16a8 8 0 0 1 16 0v16a8 8 0 0 1 -8 8z" fill="#fcb442"/><path d="m187.313 84.118a7.975 7.975 0 0 1 -5.657-2.344l-11.313-11.314a8 8 0 1 1 11.314-11.313l11.314 11.315a8 8 0 0 1 -5.658 13.656z" fill="#fcb442"/><path d="m323.078 84.118a8 8 0 0 1 -5.657-13.656l11.313-11.315a8 8 0 0 1 11.315 11.313l-11.314 11.314a7.973 7.973 0 0 1 -5.657 2.344z" fill="#fcb442"/><circle cx="256" cy="136" fill="#fc8d36" r="16"/><path d="m224 272h64v144h-64z" fill="#298057" transform="matrix(-1 0 0 -1 511.999 688)"/><path d="m261.656 415.432a8 8 0 0 1 -13.656-5.657v-125.422a8 8 0 0 1 16 0v125.422a7.98 7.98 0 0 1 -2.344 5.657z" fill="#25744e"/><path d="m224 240h64v48h-64z" fill="#fcb442" transform="matrix(-1 0 0 -1 512 528)"/><path d="m287.999 416-16-16-16 8-16-8-16 16 32 72z" fill="#fae8d8"/><path d="m277.33 440-21.331 48-21.33-48z" fill="#757c80"/><path d="m248 144h16v112h-16z" fill="#fc8d36"/><path d="m224 224h64a0 0 0 0 1 0 0v16a16 16 0 0 1 -16 16h-32a16 16 0 0 1 -16-16v-16a0 0 0 0 1 0 0z" fill="#b5b8b9" transform="matrix(-1 0 0 -1 511.999 480)"/></svg>