<svg height="512" viewBox="0 0 512 512" width="512" xmlns="http://www.w3.org/2000/svg"><g id="Flat"><path d="m24 336h64a0 0 0 0 1 0 0v88a16 16 0 0 1 -16 16h-24a24 24 0 0 1 -24-24v-80a0 0 0 0 1 0 0z" fill="#379ec3"/><path d="m464 392h-416a24 24 0 0 0 -24 24v-320a24 24 0 0 1 24-24h440v296a24 24 0 0 1 -24 24z" fill="#8acce7"/><path d="m464 344h-24a16 16 0 0 1 -16-16v-288a16 16 0 0 1 16-16h24a24 24 0 0 1 24 24v320a24 24 0 0 0 -24-24z" fill="#379ec3"/><path d="m176 208h-17.37l12.28315-12.2831a8 8 0 0 0 0-11.31371l-11.31628-11.31634a8 8 0 0 0 -11.31376 0l-12.28311 12.28327v-17.37012a8 8 0 0 0 -8-8h-16a8 8 0 0 0 -8 8v17.37012l-12.28313-12.28326a8 8 0 0 0 -11.31376 0l-11.31628 11.31633a8 8 0 0 0 0 11.31371l12.28317 12.2831h-17.37a8 8 0 0 0 -8 8v16a8 8 0 0 0 8 8h17.37l-12.28315 12.2831a8 8 0 0 0 0 11.31371l11.31628 11.31634a8 8 0 0 0 11.31376 0l12.28311-12.28327v17.37012a8 8 0 0 0 8 8h16a8 8 0 0 0 8-8v-17.37012l12.28313 12.28326a8 8 0 0 0 11.31376 0l11.31628-11.31634a8 8 0 0 0 0-11.31371l-12.28317-12.28309h17.37a8 8 0 0 0 8-8v-16a8 8 0 0 0 -8-8zm-56 32a16 16 0 1 1 16-16 15.99568 15.99568 0 0 1 -16 16z" fill="#395166"/><path d="m120 256a32 32 0 1 1 32-32 32.03635 32.03635 0 0 1 -32 32zm0-48a16 16 0 1 0 16 16 16.01833 16.01833 0 0 0 -16-16z" fill="#2f4054"/><path d="m205.65674 189.65723-11.31348-11.31446 32-32a8.00035 8.00035 0 0 1 5.65674-2.34277h96v16h-92.68652z" fill="#e44b4d"/><path d="m232 368h-72a8.00035 8.00035 0 0 1 -5.65674-2.34277l-48-48 11.31348-11.31446 45.65726 45.65723h68.686z" fill="#e44b4d"/><g fill="#379ec3"><path d="m232 96h32v16h-32z"/><path d="m280 96h48v16h-48z"/><path d="m232 120h48v16h-48z"/><path d="m296 120h16v16h-16z"/><path d="m168 304h16v16h-16z"/><path d="m200 304h32v16h-32z"/><path d="m168 328h32v16h-32z"/><path d="m216 328h16v16h-16z"/></g><path d="m384 352-12.67993 12.68994-35.32007 35.31006h-9.35986a54.64465 54.64465 0 0 1 -54.65014-54.74l.01-9.26-16-16a33.93247 33.93247 0 0 1 -1.99-45.82 31.12021 31.12021 0 0 1 -14.01-34.18l112 16z" fill="#f4ceaf"/><path d="m287.99 383.99a54.60423 54.60423 0 0 1 -16-38.73l.01-9.26-16-16a33.93247 33.93247 0 0 1 -1.99-45.82 31.18547 31.18547 0 0 1 -11.1001-11.63c.58008-.63 1.17017-1.25 1.78-1.86l11.3101-11.32 56 56s-18.87988 83.75-24.01 78.62z" fill="#f2c194"/><path d="m328 324.68994v19.31006a8 8 0 0 1 -16 0v-16l-8.95-8.95-41.4001-41.4 27.9502 5.32 36.05981 36.06a7.95409 7.95409 0 0 1 2.29 4.76 8.87168 8.87168 0 0 1 .05009.89994z" fill="#f2c194"/><path d="m492 460-108-108-52.68629 52.68629a16 16 0 0 0 0 22.62742l84.68629 84.68629z" fill="#396795"/><path d="m395.77 320.90991a16.46527 16.46527 0 0 1 -19.05 12.18009l-15.27-2.91-24.80981-4.73-8.69019-1.66-24.8999-4.74-79.0501-15.05-24-24 32-8 29.6499 5.65 27.9502 5.32 55.04 10.49 24.8099 4.72 13.42993 2.56a16.46337 16.46337 0 0 1 12.89007 20.16991z" fill="#ad7d4d"/><path d="m369.45 298.18-8 32-24.81-4.73 8-31.99z" fill="#eedc9a"/><path d="m395.77 320.90991a16.46527 16.46527 0 0 1 -19.05 12.18009l-15.27-2.91 8-31.99994 13.42993 2.56a16.46337 16.46337 0 0 1 12.89007 20.16985z" fill="#c4d4e0"/><path d="m327.95 323.79-24.8999-4.74-41.4002-41.4 27.9502 5.32 36.05981 36.06a7.95409 7.95409 0 0 1 2.29009 4.76z" fill="#966342"/><path d="m360 376-24 24h-9.35986a54.64465 54.64465 0 0 1 -54.65014-54.74l.01-9.26-16-16a33.944 33.944 0 0 1 0-48l5.6499 5.65 50.3501 50.35v16a8 8 0 0 0 16 0z" fill="#f4ceaf"/><circle cx="360" cy="416" fill="#eebe33" r="8"/><path d="m224.96 303.46-.96.54-24-24 32-8a21.63224 21.63224 0 0 1 -7.04 31.46z" fill="#d29979"/></g></svg>