<?xml version="1.0"?>
<svg xmlns="http://www.w3.org/2000/svg" xmlns:xlink="http://www.w3.org/1999/xlink" xmlns:svgjs="http://svgjs.com/svgjs" version="1.1" width="512" height="512" x="0" y="0" viewBox="0 0 512 512" style="enable-background:new 0 0 512 512" xml:space="preserve" class=""><g><g xmlns="http://www.w3.org/2000/svg" clip-rule="evenodd" fill-rule="evenodd"><path d="m387.61 234.092v-188.789c0-24.98-20.072-45.303-44.745-45.303s-44.746 20.323-44.746 45.303v99.817c-7.093-4.785-15.601-7.582-24.746-7.582-19.758 0-36.555 13.038-42.467 31.058-7.514-5.713-16.878-9.113-27.025-9.113-9.144 0-17.653 2.762-24.746 7.489v-15.584c0-24.98-20.073-45.303-44.746-45.303s-44.746 20.323-44.746 45.303v191.749c.001 93.111 74.628 168.863 166.357 168.863s166.356-75.752 166.356-168.864v-64.881c0-21.501-14.87-39.552-34.746-44.163zm-69.491-188.789c0-13.952 11.101-25.303 24.746-25.303s24.746 11.351 24.746 25.303v187.649h-49.5c.006-.141.009-.282.009-.424v-187.225zm-69.492 137.538c0-13.952 11.101-25.303 24.746-25.303s24.746 11.351 24.746 25.303v49.687c0 .142.003.284.009.424h-40.701c-3.068 0-6.024.492-8.8 1.395v-29.56-.558zm-44.746-3.358c13.645 0 24.746 11.101 24.746 24.746v.558 74.026c0 13.645-11.101 24.745-24.746 24.745s-24.746-11.101-24.746-24.745v-74.027-.557c0-13.646 11.101-24.746 24.746-24.746zm198.475 163.653c0 82.084-65.655 148.864-146.356 148.864s-146.356-66.78-146.356-148.864v-191.749c0-13.952 11.101-25.303 24.746-25.303s24.746 11.351 24.746 25.303v52.841.557 74.027c0 24.672 20.073 44.745 44.747 44.745 16.507 0 30.945-8.992 38.7-22.329 8.181 10.006 19.415 17.361 32.249 20.559-27.859 19.138-46.204 51.5-46.204 88.129 0 5.523 4.477 10 10 10s10-4.477 10-10c0-47.618 38.058-86.359 84.838-86.359 5.523 0 10-4.477 10-10s-4.477-10-10-10h-44.146c-22.438 0-40.691-18.619-40.691-41.505 0-5.018 3.948-9.101 8.8-9.101h120.181c13.645 0 24.746 11.351 24.746 25.303z" fill="#ffffff" data-original="#000000" style="" class=""/><path d="m201.08 341.688c-14.403 14.702-28.982 51.929-30.815 72.092-.5 5.5 3.553 10.364 9.054 10.864.308.028.613.042.917.042 5.114 0 9.475-3.903 9.947-9.095 1.602-17.615 15.017-49.528 25.184-59.907 3.865-3.945 3.8-10.276-.146-14.141-3.945-3.866-10.276-3.801-14.141.145z" fill="#ffffff" data-original="#000000" style="" class=""/><path d="m342.865 106.546c8.469 0 15.375-2.695 15.375-6s-6.907-6-15.375-6-15.375 2.695-15.375 6c-.001 3.305 6.906 6 15.375 6z" fill="#ffffff" data-original="#000000" style="" class=""/><path d="m342.865 186.547c8.469 0 15.375-2.696 15.375-6s-6.907-6-15.375-6-15.375 2.695-15.375 6 6.906 6 15.375 6z" fill="#ffffff" data-original="#000000" style="" class=""/><path d="m134.389 204.547c-8.468 0-15.375 2.695-15.375 6 0 3.304 6.907 6 15.375 6 8.469 0 15.375-2.696 15.375-6 .001-3.305-6.906-6-15.375-6z" fill="#ffffff" data-original="#000000" style="" class=""/><path d="m134.389 284.547c-8.468 0-15.375 2.696-15.375 6s6.907 6 15.375 6c8.469 0 15.375-2.695 15.375-6 .001-3.305-6.906-6-15.375-6z" fill="#ffffff" data-original="#000000" style="" class=""/></g><script/></g></svg>
