<svg id="Capa_1" enable-background="new 0 0 512.093 512.093" height="512" viewBox="0 0 512.093 512.093" width="512" xmlns="http://www.w3.org/2000/svg"><g><g><g><g><path d="m323.378 438.509v-32.478h-134.663v32.478c.559 33.687-18.594 66.083-18.594 66.083h171.85c0 .001-19.152-32.395-18.593-66.083z" fill="#acacac"/></g><g><path d="m188.713 406.027h134.667v20.013h-134.667z" fill="#9c9c9c"/></g><g><path d="m492.243 406.031h-472.394c-6.706 0-12.143-5.436-12.143-12.143v-290.416c0-6.706 5.436-12.143 12.143-12.143h472.394c6.706 0 12.143 5.436 12.143 12.143v290.416c0 6.706-5.436 12.143-12.143 12.143z" fill="#acacac"/></g><g><path d="m504.386 103.474v290.417c0 6.704-5.434 12.138-12.148 12.138h-20.003c6.704 0 12.138-5.434 12.138-12.138v-290.417c0-6.704-5.433-12.148-12.138-12.148h20.003c6.715 0 12.148 5.444 12.148 12.148z" fill="#9c9c9c"/></g><g><path d="m504.386 348.052v45.84c0 6.704-5.434 12.138-12.148 12.138h-472.384c-6.714 0-12.148-5.434-12.148-12.138v-45.84z" fill="#5a5a5a"/></g><g><path d="m504.386 348.056v45.84c0 6.704-5.434 12.138-12.148 12.138h-20.003c6.704 0 12.138-5.434 12.138-12.138v-45.84z" fill="#444"/></g><g><path d="m46.362 348.052v-209.866c0-6.155 4.752-11.144 10.614-11.144h398.14c5.862 0 10.614 4.989 10.614 11.144v209.866z" fill="#c4e2ff"/></g><g><path d="m465.731 138.187v209.865h-20.013v-209.865c0-6.154-4.753-11.147-10.617-11.147h20.013c5.864-.001 10.617 4.993 10.617 11.147z" fill="#a5d5f9"/></g></g><g><g><path d="m419.991 348.052h-327.89v-332.4c0-4.502 3.65-8.152 8.152-8.152h311.586c4.502 0 8.152 3.65 8.152 8.152z" fill="#eaf6ff"/></g><g><path d="m419.992 15.651v332.404h-20.013v-332.404c0-4.503-3.652-8.155-8.155-8.155h20.013c4.503 0 8.155 3.653 8.155 8.155z" fill="#d8ecfe"/></g><g><g><path d="m216.395 61.093c-9.655 0-17.482 7.827-17.482 17.482v68.494c0 2.501 0 7.157-9.16 11.77-2.536 1.277-5.33 1.898-8.54 1.898-.011 0-.022 0-.033 0-3.412-.004-6.349-.823-8.979-2.504-6.993-4.467-7.561-7.666-7.561-11.091v-68.567c0-9.655-7.827-17.482-17.482-17.482s-17.482 7.827-17.482 17.482v68.566c0 16.863 7.975 30.509 23.702 40.556 8.29 5.297 17.629 7.99 27.757 8.004h.079c8.678 0 16.844-1.896 24.268-5.635 18.313-9.222 28.398-24.492 28.398-42.997v-68.494c-.003-9.655-7.83-17.482-17.485-17.482z" fill="#97d729"/></g><g><path d="m378.861 168.352-33.031-43.523 27.469-36.429c5.813-7.709 4.276-18.671-3.433-24.484-7.712-5.816-18.672-4.276-24.484 3.433l-21.517 28.536-21.69-28.579c-5.837-7.69-16.804-9.194-24.495-3.357s-9.194 16.804-3.357 24.495l27.666 36.454-31.47 41.735c-5.813 7.709-4.276 18.671 3.434 24.484 3.152 2.377 6.847 3.525 10.512 3.525 5.299 0 10.536-2.4 13.972-6.958l25.518-33.842 27.054 35.648c3.439 4.531 8.658 6.914 13.939 6.914 3.683 0 7.396-1.159 10.556-3.557 7.691-5.837 9.194-16.804 3.357-24.495z" fill="#97d729"/></g></g><g><g><path d="m233.872 78.572v68.494c0 18.512-10.077 33.782-28.398 42.998-7.415 3.742-15.58 5.634-24.266 5.634h-.08c-3.192-.01-6.304-.27-9.326-.8 5.143-.891 10.046-2.502 14.659-4.833 18.322-9.216 28.398-24.486 28.398-42.998v-68.495c0-6.154-3.172-11.557-7.975-14.669 2.732-1.781 5.994-2.812 9.506-2.812 9.657 0 17.482 7.825 17.482 17.481z" fill="#8bc727"/></g><g><path d="m375.503 192.846c-3.162 2.402-6.874 3.562-10.557 3.562-3.342 0-6.664-.961-9.516-2.822.36-.23.71-.48 1.061-.74 7.695-5.834 9.196-16.801 3.362-24.496l-30.303-39.923c-1.614-2.127-1.619-5.067-.012-7.199l24.751-32.83c5.814-7.705 4.273-18.672-3.432-24.486-.34-.25-.68-.49-1.031-.71 5.984-3.883 14.009-3.843 20.043.71 7.705 5.814 9.246 16.781 3.432 24.486l-27.468 36.434 33.031 43.518c5.835 7.695 4.334 18.662-3.361 24.496z" fill="#8bc727"/></g></g></g></g><g><path d="m241.037 369.541c-4.142 0-7.5 3.358-7.5 7.5s3.358 7.5 7.5 7.5h30.02c4.142 0 7.5-3.358 7.5-7.5s-3.358-7.5-7.5-7.5z"/><path d="m492.244 83.83h-64.752v-68.178c0-8.631-7.022-15.652-15.653-15.652h-311.586c-8.631 0-15.652 7.021-15.652 15.652v68.178h-64.752c-10.831 0-19.643 8.812-19.643 19.643v290.416c0 10.831 8.812 19.643 19.643 19.643h161.366v24.979c0 .042 0 .083.001.125.412 24.802-10.887 49.379-15.564 58.459h-23.819c-4.142 0-7.5 3.358-7.5 7.5s3.358 7.5 7.5 7.5h228.426c4.142 0 7.5-3.358 7.5-7.5s-3.358-7.5-7.5-7.5h-23.826c-4.681-9.062-15.97-33.567-15.557-58.459 0-.042.001-.083.001-.125v-24.979h58.336c4.142 0 7.5-3.358 7.5-7.5s-3.358-7.5-7.5-7.5h-369.364c-2.56 0-4.643-2.083-4.643-4.643v-38.336h481.68v38.336c0 2.56-2.083 4.643-4.643 4.643h-68.031c-4.142 0-7.5 3.358-7.5 7.5s3.358 7.5 7.5 7.5h68.031c10.831 0 19.643-8.812 19.643-19.643v-290.417c0-10.831-8.811-19.642-19.642-19.642zm-296.029 354.619v-24.918h119.663v24.918c-.371 23.328 7.929 45.708 13.861 58.644h-147.385c5.932-12.936 14.232-35.316 13.861-58.644zm-157.353-300.263v202.366h-23.655v-237.08c0-2.56 2.083-4.643 4.643-4.643h64.752v20.712h-27.625c-9.989.001-18.115 8.364-18.115 18.645zm373.63 202.366h-312.891v-58.333c0-4.142-3.358-7.5-7.5-7.5s-7.5 3.358-7.5 7.5v58.333h-30.739v-202.366c0-2.009 1.397-3.644 3.114-3.644h27.625v112.677c0 4.142 3.358 7.5 7.5 7.5s7.5-3.358 7.5-7.5v-231.567c0-.36.292-.652.652-.652h311.586c.36 0 .652.292.652.652v324.9zm45.738 0h-30.739v-206.01h27.625c1.717 0 3.114 1.635 3.114 3.644zm38.656 0h-23.656v-202.366c0-10.28-8.126-18.644-18.114-18.644h-27.625v-20.712h64.752c2.56 0 4.643 2.083 4.643 4.643z"/><path d="m149.338 194.018c9.514 6.078 20.208 9.167 31.873 9.183 9.861 0 19.161-2.166 27.641-6.436 20.974-10.562 32.525-28.211 32.525-49.696v-68.494c0-13.775-11.207-24.982-24.982-24.982s-24.983 11.207-24.983 24.982v68.494c0 1.189 0 2.537-5.032 5.071-1.486.748-3.128 1.096-5.191 1.096-1.996-.002-3.522-.411-4.951-1.324-4.1-2.619-4.1-3.429-4.1-4.771v-68.566c0-13.775-11.207-24.982-24.982-24.982s-24.982 11.207-24.982 24.982v68.566c0 19.314 9.393 35.524 27.164 46.877zm-12.164-115.443c0-5.504 4.478-9.982 9.982-9.982s9.982 4.478 9.982 9.982v68.566c0 7.365 3.194 12.409 11.023 17.411 3.815 2.438 8.191 3.677 13.05 3.684 4.41 0 8.307-.883 11.914-2.699 11.909-5.998 13.286-13.413 13.286-18.468v-68.494c0-5.504 4.478-9.982 9.982-9.982s9.982 4.478 9.982 9.982v68.494c0 15.751-8.393 28.303-24.271 36.299-6.369 3.208-13.398 4.833-20.963 4.833-8.676-.012-16.66-2.308-23.729-6.824-13.619-8.701-20.239-19.899-20.239-34.236v-68.566z"/><path d="m384.835 163.817-29.601-39.003 24.052-31.898c4.018-5.328 5.72-11.902 4.793-18.511-.927-6.608-4.372-12.46-9.699-16.477-5.329-4.019-11.906-5.72-18.513-4.794-6.608.927-12.459 4.373-16.476 9.7l-15.548 20.62-15.696-20.683c-8.329-10.971-24.031-13.123-35.003-4.797-10.972 8.328-13.125 24.03-4.797 35.003l24.236 31.935-28.054 37.206c-4.018 5.328-5.72 11.901-4.793 18.51s4.372 12.461 9.699 16.477c4.369 3.295 9.565 5.037 15.028 5.037 7.921 0 15.197-3.624 19.96-9.942l19.549-25.926 21.061 27.751c4.766 6.279 12.024 9.88 19.913 9.88 5.49 0 10.708-1.757 15.09-5.083 5.316-4.034 8.743-9.897 9.649-16.508.907-6.612-.815-13.181-4.85-18.497zm-13.865 23.055c-1.751 1.329-3.834 2.032-6.022 2.032-3.157 0-6.06-1.439-7.965-3.949l-27.054-35.648c-1.418-1.869-3.629-2.966-5.974-2.966-.004 0-.008 0-.012 0-2.35.004-4.562 1.108-5.977 2.984l-25.518 33.842c-1.903 2.525-4.813 3.973-7.983 3.973-2.177 0-4.25-.696-5.997-2.014-2.129-1.605-3.505-3.943-3.875-6.583-.37-2.641.31-5.268 1.915-7.396l31.47-41.735c2.021-2.68 2.015-6.376-.014-9.05l-27.667-36.452c-3.327-4.385-2.467-10.66 1.917-13.987 4.385-3.328 10.66-2.467 13.987 1.917l21.689 28.58c1.418 1.869 3.628 2.966 5.974 2.966h.012c2.35-.003 4.562-1.108 5.977-2.984l21.518-28.537c1.605-2.129 3.943-3.505 6.583-3.876 2.641-.371 5.267.31 7.397 1.917 2.129 1.605 3.505 3.943 3.875 6.583.37 2.641-.31 5.268-1.916 7.396l-27.468 36.429c-2.021 2.68-2.015 6.376.014 9.05l33.031 43.523c3.327 4.384 2.467 10.658-1.917 13.985z"/><path d="m382.418 226.776h-252.744c-4.142 0-7.5 3.358-7.5 7.5s3.358 7.5 7.5 7.5h252.744c4.142 0 7.5-3.358 7.5-7.5s-3.357-7.5-7.5-7.5z"/><path d="m382.418 257.219h-252.744c-4.142 0-7.5 3.358-7.5 7.5s3.358 7.5 7.5 7.5h252.744c4.142 0 7.5-3.358 7.5-7.5s-3.357-7.5-7.5-7.5z"/><path d="m382.418 287.662h-252.744c-4.142 0-7.5 3.358-7.5 7.5s3.358 7.5 7.5 7.5h252.744c4.142 0 7.5-3.358 7.5-7.5s-3.357-7.5-7.5-7.5z"/></g></g></svg>